<svg width="52" height="54" viewBox="0 0 52 54" fill="none" xmlns="http://www.w3.org/2000/svg">
<path d="M6.5 46.9379V38.0869C6.5 36.3363 7.00829 34.625 7.9606 33.1695C8.9129 31.7139 10.2665 30.5795 11.8501 29.9096C13.4337 29.2396 15.1763 29.0644 16.8574 29.4059C18.5386 29.7474 20.0829 30.5904 21.2949 31.8282C22.507 33.0661 23.3324 34.6432 23.6668 36.3601C24.0012 38.0771 23.8296 39.8567 23.1736 41.474C22.5177 43.0914 21.4068 44.4737 19.9816 45.4463C18.5564 46.4188 16.8808 46.9379 15.1667 46.9379H6.5Z" fill="white" stroke="white" stroke-width="2" stroke-linecap="round" stroke-linejoin="round"/>
<path d="M17.7667 29.6784C19.9717 23.7149 23.7123 18.4701 28.5937 14.4976C33.475 10.525 39.316 7.97202 45.5001 7.10815C44.6542 13.4238 42.1544 19.3891 38.2646 24.3742C34.3748 29.3594 29.2392 33.1796 23.4001 35.4316" stroke="white" stroke-width="2" stroke-linecap="round" stroke-linejoin="round"/>
<path d="M22.9667 20.3848C27.1769 22.3693 30.5568 25.8212 32.5 30.1209" stroke="white" stroke-width="2" stroke-linecap="round" stroke-linejoin="round"/>
</svg>
